<svg width="895" height="98" viewBox="0 0 895 98" fill="none" xmlns="http://www.w3.org/2000/svg">
<path d="M61.328 74.264C61.328 58.904 44.56 56.216 31.248 54.424C23.824 53.272 18.064 51.992 18.064 47.64C18.192 43.288 22.928 40.216 28.816 40.216C36.496 40.216 42.256 43.928 42.256 49.304H59.152C59.152 36.12 46.48 26.648 28.944 26.648C12.944 26.648 0.784 35.864 0.784 48.664C0.784 64.664 12.944 66.968 27.536 68.76C35.472 69.528 42.896 71.064 42.896 76.568C42.896 80.92 37.776 84.248 30.736 84.248C22.416 84.248 16.4 79.64 16.4 73.112H0.144C0.0160003 87.448 12.816 97.816 30.48 97.816C48.784 97.816 61.328 87.96 61.328 74.264ZM77.437 73.752C77.437 87.704 85.885 97.56 98.941 97.56C103.037 97.56 108.157 96.792 112.125 95.512V80.024C109.949 80.664 107.133 81.048 105.341 81.048C99.965 81.048 96.637 77.336 96.637 71.832V44.056H111.485V29.464H96.637V12.952H80.509L78.333 29.464H68.221V44.056H77.437V73.752ZM188.796 95V29.464H169.596V66.328C169.596 74.648 163.452 80.664 155.9 80.664C148.348 80.664 143.74 75.032 143.74 67.096V29.464H124.54V70.424C124.54 86.168 134.524 97.56 149.244 97.56C157.82 97.56 165.5 93.208 170.108 86.04V95H188.796ZM238.853 44.184C248.837 44.184 256.005 51.864 256.005 62.232C256.005 72.6 248.837 80.28 238.853 80.28C228.997 80.28 221.701 72.728 221.701 62.232C221.701 51.864 228.869 44.184 238.853 44.184ZM202.501 62.232C202.501 82.968 215.429 97.56 233.605 97.56C242.821 97.56 250.373 93.592 255.493 87.064V95H274.437V0.0239944H255.237V37.4C250.117 30.744 242.565 26.904 233.605 26.904C215.429 26.904 202.501 41.496 202.501 62.232ZM307.838 56.088C309.502 47.384 315.39 41.624 323.838 41.624C332.542 41.624 338.942 47.768 340.094 56.088H307.838ZM288.126 61.72C288.126 82.84 302.974 97.56 324.094 97.56C340.094 97.56 353.918 88.216 357.118 75.416L339.838 72.984C337.79 78.744 331.774 82.84 324.606 82.84C315.902 82.84 309.63 76.824 307.966 67.608L359.294 67.736C359.55 66.328 359.55 63.64 359.55 61.976C359.55 41.24 345.214 26.904 324.222 26.904C303.102 26.904 288.126 41.24 288.126 61.72ZM373.195 29.464V95H392.395V58.136C392.395 49.816 398.539 43.8 406.091 43.8C413.643 43.8 418.251 49.432 418.251 57.368V95H437.451V54.04C437.451 38.296 427.467 26.904 412.747 26.904C404.171 26.904 396.491 31.256 391.883 38.296V29.464H373.195ZM457.812 73.752C457.812 87.704 466.26 97.56 479.316 97.56C483.412 97.56 488.532 96.792 492.5 95.512V80.024C490.324 80.664 487.508 81.048 485.716 81.048C480.34 81.048 477.012 77.336 477.012 71.832V44.056H491.86V29.464H477.012V12.952H460.884L458.708 29.464H448.596V44.056H457.812V73.752Z" fill="#FEFEFF"/>
<path d="M514.387 97.048C520.915 97.048 525.523 92.568 525.523 86.168C525.523 79.896 520.915 75.416 514.387 75.416C507.987 75.416 503.251 79.896 503.251 86.168C503.251 92.568 507.987 97.048 514.387 97.048ZM539.195 29.464V95H558.395V58.136C558.395 49.816 564.539 43.8 572.091 43.8C579.643 43.8 584.251 49.432 584.251 57.368V95H603.451V54.04C603.451 38.296 593.467 26.904 578.747 26.904C570.171 26.904 562.491 31.256 557.883 38.296V29.464H539.195ZM652.1 26.904C630.596 26.904 615.748 41.24 615.748 62.232C615.748 83.096 630.596 97.56 652.1 97.56C673.732 97.56 688.58 83.096 688.58 62.232C688.58 41.24 673.732 26.904 652.1 26.904ZM652.1 80.664C642.116 80.664 635.076 72.984 635.076 62.232C635.076 51.48 642.116 43.8 652.1 43.8C662.212 43.8 669.252 51.48 669.252 62.232C669.252 72.984 662.212 80.664 652.1 80.664ZM704.687 73.752C704.687 87.704 713.135 97.56 726.191 97.56C730.287 97.56 735.407 96.792 739.375 95.512V80.024C737.199 80.664 734.383 81.048 732.591 81.048C727.215 81.048 723.887 77.336 723.887 71.832V44.056H738.735V29.464H723.887V12.952H707.759L705.583 29.464H695.471V44.056H704.687V73.752ZM769.838 56.088C771.502 47.384 777.39 41.624 785.838 41.624C794.542 41.624 800.942 47.768 802.094 56.088H769.838ZM750.126 61.72C750.126 82.84 764.974 97.56 786.094 97.56C802.094 97.56 815.918 88.216 819.118 75.416L801.838 72.984C799.79 78.744 793.774 82.84 786.606 82.84C777.902 82.84 771.63 76.824 769.966 67.608L821.294 67.736C821.55 66.328 821.55 63.64 821.55 61.976C821.55 41.24 807.214 26.904 786.222 26.904C765.102 26.904 750.126 41.24 750.126 61.72ZM894.203 74.264C894.203 58.904 877.435 56.216 864.123 54.424C856.699 53.272 850.939 51.992 850.939 47.64C851.067 43.288 855.803 40.216 861.691 40.216C869.371 40.216 875.131 43.928 875.131 49.304H892.027C892.027 36.12 879.355 26.648 861.819 26.648C845.819 26.648 833.659 35.864 833.659 48.664C833.659 64.664 845.819 66.968 860.411 68.76C868.347 69.528 875.771 71.064 875.771 76.568C875.771 80.92 870.651 84.248 863.611 84.248C855.291 84.248 849.275 79.64 849.275 73.112H833.019C832.891 87.448 845.691 97.816 863.355 97.816C881.659 97.816 894.203 87.96 894.203 74.264Z" fill="#095D9E"/>
</svg>
