<svg enable-background="new 0 0 490.95 490.95" viewBox="0 0 490.95 490.95" xmlns="http://www.w3.org/2000/svg"><path d="m484.725 155.477c-8.3-8.3-20.8-8.3-29.1 0l-74.9 74.9c-32.3 33.3-86.3 33.3-119.6 0-33.3-32.3-33.3-86.3 0-119.6l74.9-74.9c8.3-8.3 8.3-20.8 0-29.1s-20.8-8.3-29.1 0l-74.9 74.9c-31.5 31.5-42.7 76-33.6 116.8-9.4-2.2-68.7-15.6-117.3 33l-74.9 74.9c-8.3 8.3-8.3 20.8 0 29.1s20.8 8.3 29.1 0l74.9-74.9c46.8-43.1 102.4-20.7 120.7 0 30.7 34.8 33.3 86.3 0 119.6l-74.9 74.9c-8.3 8.3-8.5 21 0 29.1 12.1 11.6 25 4.2 27 0l74.9-74.9c31.5-31.5 42.7-76 33.6-116.8 9.5 2.2 69.7 15.5 118.3-33.1l74.9-74.9c8.3-8.2 8.3-20.7 0-29z"/><path d="m215.225 354.177c8.3-8.3 8.3-20.8 0-29.1l-49.9-49.9c-8.3-8.3-20.8-8.3-29.1 0s-8.3 20.8 0 29.1l49.9 49.9c12.3 11.1 25 5.2 29.1 0z"/><path d="m161.125 381.277-49.9-49.9c-8.3-8.3-20.8-8.3-29.1 0s-8.3 20.8 0 29.1l48.9 48.9c4.2 4.2 14.1 10.9 30.2 1 8.3-8.3 8.3-20.8-.1-29.1z"/><path d="m330.725 110.777 49.9 49.9c12.9 11.8 25 4.2 29.1 0 8.3-8.3 8.3-20.8 0-29.1l-49.9-49.9c-8.3-8.3-20.8-8.3-29.1 0s-8.3 20.8 0 29.1z"/><path d="m275.625 135.777c-8.3 8.3-8.3 20.8 0 29.1l49.9 49.9c12.4 11.5 25 4.2 29.1 0 8.3-8.3 8.3-20.8 0-29.1l-49.9-49.9c-8.3-8.4-20.8-8.4-29.1 0z"/></svg>