<svg enable-background="new 0 0 54 54" viewBox="0 0 54 54" xmlns="http://www.w3.org/2000/svg"><path d="m27 6c.553 0 1-.447 1-1v-4c0-.553-.447-1-1-1s-1 .447-1 1v4c0 .553.447 1 1 1z"/><path d="m51 24h-4c-.553 0-1 .447-1 1s.447 1 1 1h4c.553 0 1-.447 1-1s-.447-1-1-1z"/><path d="m7 24h-4c-.553 0-1 .447-1 1s.447 1 1 1h4c.553 0 1-.447 1-1s-.447-1-1-1z"/><path d="m43.264 7.322-2.828 2.828c-.391.391-.391 1.023 0 1.414.195.195.451.293.707.293s.512-.098.707-.293l2.828-2.828c.391-.391.391-1.023 0-1.414s-1.024-.39-1.414 0z"/><path d="m12.15 38.436-2.828 2.828c-.391.391-.391 1.023 0 1.414.195.195.451.293.707.293s.512-.098.707-.293l2.828-2.828c.391-.391.391-1.023 0-1.414s-1.023-.391-1.414 0z"/><path d="m41.85 38.436c-.391-.391-1.023-.391-1.414 0s-.391 1.023 0 1.414l2.828 2.828c.195.195.451.293.707.293s.512-.098.707-.293c.391-.391.391-1.023 0-1.414z"/><path d="m12.15 11.564c.195.195.451.293.707.293s.512-.098.707-.293c.391-.391.391-1.023 0-1.414l-2.828-2.828c-.391-.391-1.023-.391-1.414 0s-.391 1.023 0 1.414z"/><path d="m27 13c-6.617 0-12 5.383-12 12 0 .553.447 1 1 1s1-.447 1-1c0-5.514 4.486-10 10-10 .553 0 1-.447 1-1s-.447-1-1-1z"/><path d="m27 8c-9.374 0-17 7.626-17 17 0 7.112 4.391 13.412 11 15.9v2.1 7c0 .553.447 1 1 1h1v2c0 .553.447 1 1 1h6c.553 0 1-.447 1-1v-2h1c.553 0 1-.447 1-1v-7-2.1c6.609-2.488 11-8.788 11-15.9 0-9.374-7.626-17-17-17zm4.688 31.242c-.411.135-.688.519-.688.95v1.808h-8v-1.808c0-.432-.277-.815-.688-.95-6.167-2.028-10.312-7.752-10.312-14.242 0-8.271 6.729-15 15-15s15 6.729 15 15c0 6.49-4.145 12.214-10.312 14.242z"/></svg>