<svg enable-background="new 0 0 470 470" viewBox="0 0 470 470" xmlns="http://www.w3.org/2000/svg"><path d="m439.196 186.932c-3.384-2.387-8.063-1.58-10.452 1.806-2.388 3.385-1.58 8.064 1.805 10.452 11.154 7.868 24.45 20.448 24.45 35.694 0 23.599-32.986 48.215-88.649 63.802-6.24-20.87-14.612-42.684-24.852-64.739 9.839-21.465 17.918-42.707 23.973-62.98 14.631 4.038 28.066 8.78 39.954 14.167 1.004.455 2.056.671 3.091.671 2.854 0 5.581-1.638 6.835-4.406 1.71-3.772.038-8.217-3.735-9.927-12.555-5.69-26.727-10.69-42.133-14.938 3.227-12.589 5.599-24.704 7.055-36.158 6.074-1.362 11.425-5.201 14.6-10.699 3.005-5.204 3.803-11.268 2.248-17.073-1.556-5.806-5.279-10.657-10.483-13.662-1.851-1.069-3.842-1.854-5.9-2.36-3.045-21.588-11.762-37.083-25.444-44.981-23.118-13.346-56.986-3.604-95.365 27.434-7.177 5.804-14.376 12.241-21.546 19.231-7.249-7.079-14.527-13.595-21.784-19.463-38.379-31.037-72.247-40.781-95.365-27.434-13.789 7.961-22.536 23.632-25.515 45.487-1.698.501-3.343 1.193-4.889 2.086-5.205 3.005-8.928 7.856-10.484 13.662-1.555 5.806-.757 11.869 2.248 17.073 3.01 5.214 7.975 8.943 13.659 10.477 1.474 11.592 3.888 23.861 7.175 36.614-12.496 3.475-24.165 7.446-34.805 11.88-4.038-3.842-9.493-6.208-15.493-6.208-12.407 0-22.5 10.094-22.5 22.5 0 1.553.158 3.07.459 4.535-17.917 13.647-27.354 29.26-27.354 45.409 0 26.694 25.372 51.153 71.441 68.872 8.613 3.313 17.785 6.328 27.42 9.042-3.97 15.325-6.688 29.964-8.026 43.567-.406 4.122 2.607 7.793 6.729 8.198.25.024.498.037.743.037 3.812-.001 7.074-2.895 7.455-6.767 1.266-12.864 3.842-26.729 7.601-41.266 21.098 5.049 44.082 8.73 68.211 10.925 13.702 19.39 28.106 37.149 42.691 52.655-41.576 40.862-79.669 57.352-100.206 45.494-13.204-7.623-17.451-25.428-18.688-39.021-.376-4.126-4.032-7.174-8.149-6.789-4.125.375-7.165 4.023-6.79 8.148 2.236 24.561 11.27 42.075 26.126 50.652 6.759 3.902 14.435 5.83 22.875 5.83 20.43 0 45.331-11.3 72.49-33.264 7.575-6.126 15.175-12.958 22.74-20.4 9.551 9.395 19.124 17.757 28.575 24.934-.007.026-.018.051-.025.078-1.555 5.805-.757 11.868 2.248 17.073 4.007 6.94 11.479 11.252 19.5 11.252 3.932 0 7.817-1.043 11.236-3.017 1.612-.931 3.061-2.035 4.346-3.271 10.405 4.231 20.165 6.36 29.057 6.36 8.486 0 16.186-1.934 22.898-5.809 23.118-13.347 31.614-47.549 23.924-96.306-1.477-9.367-3.523-19.089-6.086-29.073 9.928-2.772 19.37-5.861 28.221-9.265 46.071-17.716 71.443-42.175 71.443-68.869 0-17.154-10.652-33.736-30.804-47.952zm-87.376 115.487c-16.197 3.816-34.006 6.901-53.237 9.046 6.102-9.315 12.034-18.948 17.75-28.849 5.933-10.276 11.499-20.635 16.685-30.991 7.554 17.318 13.868 34.372 18.802 50.794zm-187.042-107.302c7.877-13.644 15.96-26.446 24.141-38.395 15.014-1.208 30.444-1.837 46.081-1.837 15.358 0 30.507.606 45.253 1.769 8.143 11.903 16.187 24.649 24.029 38.231 7.509 13.005 14.414 26.09 20.658 39.1-6.498 13.702-13.717 27.481-21.598 41.132-7.819 13.543-15.841 26.255-23.96 38.129-14.156 1.064-28.969 1.638-44.383 1.638-15.682 0-30.743-.594-45.122-1.694-8.382-12.191-16.482-25.007-24.16-38.306-7.83-13.562-15.007-27.254-21.473-40.872 6.22-12.963 13.081-25.986 20.534-38.895zm-28.542 21.233c-7.189-16.67-13.225-33.086-17.985-48.869 16.072-3.774 33.332-6.758 51.388-8.869-6.138 9.363-12.103 19.048-17.851 29.004-5.502 9.531-10.691 19.131-15.552 28.734zm98.403-116.869c11.381 12.054 22.939 25.872 34.397 41.381-11.192-.643-22.561-.979-34.036-.979-11.745 0-23.383.353-34.838 1.027 11.486-15.532 23.071-29.368 34.477-41.429zm98.302 116.836c-4.891-9.655-10.118-19.318-15.669-28.933-5.72-9.908-11.657-19.548-17.764-28.87 18.063 2.08 35.341 5.024 51.432 8.768-4.753 15.832-10.794 32.303-17.999 49.035zm45.208-114.14c-1.336 2.314-3.831 3.753-6.509 3.753-1.321 0-2.578-.339-3.737-1.008-1.735-1.002-2.976-2.619-3.494-4.554-.519-1.936-.252-3.956.75-5.691 1.203-2.083 3.346-3.447 5.716-3.7.293-.028.541-.053.793-.053 1.321 0 2.578.339 3.736 1.008 1.734 1.002 2.975 2.619 3.494 4.554s.253 3.956-.749 5.691zm-34.088-57.586c11.443 6.606 16.165 20.859 18.025 33.494-4.091 1.928-7.59 5.063-9.916 9.092-3.005 5.205-3.804 11.269-2.248 17.074s5.279 10.656 10.483 13.661c.408.236.824.457 1.245.666-1.379 10.84-3.629 22.32-6.686 34.264-20.59-4.822-43.009-8.376-66.474-10.53-13.914-19.726-28.538-37.73-43.403-53.437 41.094-39.982 78.637-56.026 98.974-44.284zm-252.959 51.895c.519-1.935 1.759-3.552 3.495-4.554 1.146-.662 2.389-.999 3.696-1.005.05.003.1.003.15.005 2.636.04 5.081 1.463 6.399 3.746 1.002 1.735 1.268 3.756.75 5.691-.519 1.935-1.759 3.552-3.495 4.554-1.158.669-2.415 1.008-3.736 1.008-2.678 0-5.172-1.438-6.509-3.753-1.003-1.736-1.269-3.757-.75-5.692zm16.389 22.485c.716-.319 1.422-.665 2.104-1.059 5.205-3.005 8.928-7.856 10.484-13.661 1.556-5.806.757-11.869-2.248-17.074-2.498-4.327-6.343-7.631-10.828-9.507 1.882-12.612 6.619-26.742 17.997-33.312 20.375-11.763 58.02 4.36 99.205 44.505-14.906 15.723-29.571 33.758-43.524 53.526-23.472 2.192-45.892 5.792-66.471 10.655-3.057-11.87-5.316-23.285-6.719-34.073zm-58.094 58.47c4.136 0 7.5 3.364 7.5 7.5s-3.364 7.5-7.5 7.5-7.5-3.364-7.5-7.5 3.364-7.5 7.5-7.5zm-34.397 57.443c0-13.251 10.027-24.505 20.192-32.51 3.876 3.165 8.822 5.066 14.205 5.066 12.407 0 22.5-10.094 22.5-22.5 0-.976-.069-1.936-.191-2.879 9.813-4.036 20.543-7.667 32.021-10.862 6.066 20.218 14.141 41.394 23.958 62.783-10.191 21.967-18.556 43.731-24.803 64.489-55.198-15.598-87.882-40.097-87.882-63.587zm102.393 67.351c4.937-16.327 11.248-33.33 18.778-50.588 5.15 10.272 10.673 20.546 16.557 30.737 5.737 9.937 11.713 19.615 17.866 28.987-19.226-2.175-37.027-5.289-53.201-9.136zm117.607 27.649c11.214 0 22.308-.311 33.221-.914-11.151 15.107-22.399 28.608-33.487 40.445-11.391-12.146-22.686-25.746-33.617-40.479 11.126.627 22.443.948 33.883.948zm53.699 98.244c-1.158.668-2.415 1.007-3.736 1.007-2.679 0-5.173-1.438-6.509-3.752-1.001-1.735-1.268-3.756-.749-5.691.191-.712.481-1.381.857-1.993.013-.018.028-.033.041-.05.054-.075.098-.154.149-.231.627-.923 1.452-1.705 2.448-2.28 1.141-.659 2.433-1.008 3.736-1.008 2.678 0 5.172 1.438 6.509 3.753 2.067 3.581.835 8.177-2.746 10.245zm72.908-83.697c6.558 41.583.505 71.099-16.607 80.979-11.351 6.553-25.91 3.617-37.732-1.023.585-4.692-.293-9.603-2.834-14.003-4.007-6.94-11.479-11.253-19.499-11.253-3.933 0-7.818 1.044-11.236 3.018-.663.383-1.3.797-1.913 1.237-8.805-6.722-17.731-14.537-26.65-23.307 14.556-15.491 28.869-33.176 42.501-52.513 24.105-2.158 47.077-5.799 68.182-10.803 2.438 9.509 4.384 18.761 5.788 27.668z"/><path d="m235 287.384c28.949 0 52.5-23.552 52.5-52.5s-23.551-52.5-52.5-52.5-52.5 23.552-52.5 52.5 23.551 52.5 52.5 52.5zm0-90c20.678 0 37.5 16.822 37.5 37.5s-16.822 37.5-37.5 37.5-37.5-16.822-37.5-37.5 16.822-37.5 37.5-37.5z"/></svg>