<svg enable-background="new 0 0 297 297" viewBox="0 0 297 297" xmlns="http://www.w3.org/2000/svg"><path d="m231.81 207.314c52.317-52.318 54.186-136.265 5.622-190.852 3.475-3.88 3.359-9.84-.369-13.568-3.861-3.859-10.117-3.859-13.978 0l-22.146 22.145c-18.489-14.92-41.988-23.869-67.542-23.869-59.402 0-107.729 48.328-107.729 107.731 0 25.553 8.948 49.052 23.869 67.541l-22.146 22.147c-3.859 3.859-3.859 10.118 0 13.977 1.931 1.93 4.459 2.895 6.989 2.895 2.357 0 4.707-.85 6.579-2.525 26.278 23.379 59.356 35.076 92.439 35.076 1.751 0 3.503-.043 5.253-.108v29.33h-22.732c-5.458 0-9.884 4.425-9.884 9.884 0 5.458 4.426 9.883 9.884 9.883h65.231c5.458 0 9.884-4.425 9.884-9.883 0-5.459-4.426-9.884-9.884-9.884h-22.732v-31.48c26.903-4.879 52.638-17.686 73.392-38.44zm-10.449-98.413c0 20.698-7.189 39.746-19.198 54.787l-13.05-13.05c14.93-16.717 25.847-35.479 31.39-53.995.561 4.007.858 8.099.858 12.258zm-75.156-1.171 54.697-54.697c10.293 19.76-.245 54.469-25.8 83.595zm14.924 42.88c-21.049 18.479-45.585 29.68-65.776 29.68-5.155 0-11.795-.792-17.814-3.894l54.688-54.688zm24.885-110.645-53.787 53.787-26.561-26.561c21.049-18.479 45.584-29.681 65.775-29.681 4.244.001 9.493.541 14.573 2.455zm-67.765 67.765-53.808 53.808c-7.695-20.158 3.038-52.767 27.251-80.364zm56.89 56.889 13.046 13.047c-15.04 12.009-34.088 19.199-54.787 19.199-4.14 0-8.212-.295-12.202-.851 18.285-5.477 37.08-16.334 53.943-31.395zm-29.542-142.831c-18.284 5.478-37.08 16.335-53.94 31.395l-13.047-13.047c15.041-12.008 34.089-19.198 54.787-19.198 4.139-.001 8.21.293 12.2.85zm-80.964 32.326 13.048 13.048c-14.928 16.718-25.846 35.478-31.388 53.994-.561-4.007-.858-8.096-.858-12.255 0-20.699 7.19-39.747 19.198-54.787zm-9.647 144.834 8.169-8.169c.51.354 1.02.708 1.544 1.042 18.661 15.487 42.61 24.811 68.698 24.811 59.402 0 107.73-48.328 107.73-107.73 0-26.059-9.301-49.983-24.756-68.635-.35-.549-.711-1.088-1.083-1.621l8.157-8.156c40.854 46.853 38.987 118.245-5.613 162.847-23.282 23.281-53.854 34.921-84.435 34.918-28.004-.004-56.013-9.777-78.411-29.307z"/></svg>