<svg enable-background="new 0 0 470 470" viewBox="0 0 470 470" xmlns="http://www.w3.org/2000/svg"><path d="m20 105.122v30.073c0 4.142 3.358 7.5 7.5 7.5h2.5v42.5c0 4.142 3.358 7.5 7.5 7.5h395c4.142 0 7.5-3.358 7.5-7.5v-42.5h2.5c4.142 0 7.5-3.358 7.5-7.5v-30.073c0-.033 0-29.927 0-29.927 0-4.142-3.358-7.5-7.5-7.5s-7.5 3.358-7.5 7.5v20.917l-192.5-37.108v-23.808c0-4.142-3.358-7.5-7.5-7.5s-7.5 3.358-7.5 7.5v23.808l-192.5 37.108v-20.916c0-4.142-3.358-7.5-7.5-7.5s-7.5 3.358-7.5 7.5zm405 72.573h-380v-35h380zm-190-104.861 200 38.554v16.308h-2.49c-.019 0-395 0-395 0-.019 0-2.51 0-2.51 0v-16.308z"/><path d="m462.5 397.304h-12.5v-22.5c0-4.142-3.358-7.5-7.5-7.5h-22.5v-144.609h2.5c4.142 0 7.5-3.358 7.5-7.5s-3.358-7.5-7.5-7.5h-50c-4.142 0-7.5 3.358-7.5 7.5s3.358 7.5 7.5 7.5h2.5v144.609h-36.25v-144.609h2.5c4.142 0 7.5-3.358 7.5-7.5s-3.358-7.5-7.5-7.5h-50c-4.142 0-7.5 3.358-7.5 7.5s3.358 7.5 7.5 7.5h2.5v144.609h-36.25v-144.609h2.5c4.142 0 7.5-3.358 7.5-7.5s-3.358-7.5-7.5-7.5h-50c-4.142 0-7.5 3.358-7.5 7.5s3.358 7.5 7.5 7.5h2.5v144.609h-36.25v-144.609h2.5c4.142 0 7.5-3.358 7.5-7.5s-3.358-7.5-7.5-7.5h-50c-4.142 0-7.5 3.358-7.5 7.5s3.358 7.5 7.5 7.5h2.5v144.609h-36.25v-144.609h2.5c4.142 0 7.5-3.358 7.5-7.5s-3.358-7.5-7.5-7.5h-50c-4.142 0-7.5 3.358-7.5 7.5s3.358 7.5 7.5 7.5h2.5v144.609h-22.5c-4.142 0-7.5 3.358-7.5 7.5v22.5h-12.5c-4.142 0-7.5 3.358-7.5 7.5v30c0 4.142 3.358 7.5 7.5 7.5h455c4.142 0 7.5-3.358 7.5-7.5v-30c0-4.142-3.358-7.5-7.5-7.5zm-72.5-174.609h15v144.609h-15zm-81.25 0h15v144.609h-15zm-81.25 0h15v144.609h-15zm-81.25 0h15v144.609h-15zm-81.25 0h15v144.609h-15zm390 204.609h-440v-15h72.5c4.142 0 7.5-3.358 7.5-7.5s-3.358-7.5-7.5-7.5h-52.5v-15h400v15h-317.5c-4.142 0-7.5 3.358-7.5 7.5s3.358 7.5 7.5 7.5h337.5z"/></svg>