<svg enable-background="new 0 0 32 32" viewBox="0 0 32 32" xmlns="http://www.w3.org/2000/svg"><path d="m2 1c-.6 0-1 .4-1 1v13h14v-14zm9 8h-2v2c0 .6-.4 1-1 1s-1-.4-1-1v-2h-2c-.6 0-1-.4-1-1s.4-1 1-1h2v-2c0-.6.4-1 1-1s1 .4 1 1v2h2c.6 0 1 .4 1 1s-.4 1-1 1z"/><path d="m1 17v13c0 .6.4 1 1 1h13v-14zm9.8 8.4c.4.4.4 1 0 1.4-.2.2-.5.3-.7.3s-.5-.1-.7-.3l-1.4-1.4-1.4 1.4c-.2.2-.5.3-.7.3s-.5-.1-.7-.3c-.4-.4-.4-1 0-1.4l1.4-1.4-1.4-1.4c-.4-.4-.4-1 0-1.4s1-.4 1.4 0l1.4 1.4 1.4-1.4c.4-.4 1-.4 1.4 0s.4 1 0 1.4l-1.4 1.4z"/><path d="m30 1h-13v14h14v-13c0-.6-.4-1-1-1zm-3 8h-6c-.6 0-1-.4-1-1s.4-1 1-1h6c.6 0 1 .4 1 1s-.4 1-1 1z"/><path d="m17 17v14h13c.6 0 1-.4 1-1v-13zm10 10h-6c-.6 0-1-.4-1-1s.4-1 1-1h6c.6 0 1 .4 1 1s-.4 1-1 1zm0-4h-6c-.6 0-1-.4-1-1s.4-1 1-1h6c.6 0 1 .4 1 1s-.4 1-1 1z"/></svg>