<svg enable-background="new 0 0 512 512" viewBox="0 0 512 512" xmlns="http://www.w3.org/2000/svg"><path d="m317.568 189.372-43.255-118.238c-1.527-4.361-3.977-7.834-7.313-10.351-6.741-4.975-15.804-4.736-22.238.034-3.285 2.475-5.734 5.948-7.236 10.214l-42.898 117.829c-2.389 5.487-1.314 9.813.026 12.484 1.775 3.541 4.659 6.059 8.26 7.253l4.54.777c2.313 0 4.548-.589 6.613-1.715 3.362-1.801 5.914-4.702 7.484-8.653l12.698-34.79h43.477l12.621 35.046c1.434 3.575 3.84 6.426 8.004 8.772 1.877.785 3.823 1.186 5.803 1.186l4.659-.759c3.729-1.237 6.673-3.849 8.303-7.364 1.647-3.559 1.834-7.527.452-11.725zm-73.284-52.668 11.674-31.915 11.597 31.915z"/><path d="m183.834 378.641c-2.125-3.063-4.625-5.837-7.484-8.294 1.528-1.826 2.85-3.763 3.977-5.811 3.49-5.914 5.265-12.672 5.265-20.087 0-11.187-3.584-20.89-10.675-28.851-7.91-8.815-18.423-13.278-31.275-13.278h-38.767c-7.936 0-14.626 2.884-19.379 8.388-4.087 4.787-6.161 10.675-6.161 17.502v94.788c0 6.716 2.074 12.552 6.212 17.399 4.71 5.436 11.401 8.329 19.328 8.329h41.378c14.029 0 25.438-4.821 33.911-14.336 7.535-8.414 11.366-18.765 11.366-30.763.001-9.438-2.628-17.886-7.696-24.986zm-77.278-48.597.239-.009h35.789v-.009c6.212 0 9.003 2.338 10.675 4.25 2.441 2.654 3.576 5.837 3.576 10.001 0 3.977-1.161 7.125-3.703 9.975-2.577 2.91-5.922 4.275-10.547 4.275h-34.876zm51.976 85.837c-3.063 3.516-7.014 5.137-12.45 5.137l-37.999 1.271v-36.241h37.12c5.649 0 9.813 1.673 13.09 5.274 3.021 3.328 4.489 7.347 4.489 12.297 0 5.008-1.374 9.01-4.25 12.262z"/><path d="m436.821 392.823c-2.133-3.302-5.359-5.487-9.173-6.298l-3.499-.41c-2.466 0-4.813.597-7.211 1.911-3.635 2.116-6.084 5.7-6.878 9.873-2.074 9.651-5.888 16.64-11.264 20.71-4.779 3.575-11.366 5.376-19.601 5.376-10.846 0-19.191-3.584-25.472-10.974-7.151-8.414-10.778-21.026-10.778-37.487 0-16.034 3.652-28.561 10.752-37.129 6.554-7.637 14.891-11.349 25.498-11.349 8.183 0 14.916 1.801 20.002 5.359 5.402 3.772 8.772 9.421 10.266 16.998.964 5.76 4.053 8.9 6.263 10.377 2.313 1.638 5.009 2.509 7.799 2.509l3.277-.401c3.678-.862 6.716-2.884 8.926-6.05 2.125-3.209 2.978-6.929 2.372-11.128-2.466-13.141-8.311-23.834-17.459-31.872-10.487-8.951-24.422-13.5-41.438-13.5-19.354 0-35.226 7.253-47.147 21.504-11.844 13.926-17.86 32.333-17.86 54.682 0 22.835 6.025 41.378 17.826 55.014 11.861 14.029 27.725 21.154 47.172 21.154 17.041 0 31.002-4.915 41.464-14.541 8.764-7.962 14.839-18.773 18.065-32.239 1.29-5.663-.349-9.733-1.902-12.089z"/><path d="m486.4 243.2h-96v-217.6c0-14.14-11.46-25.6-25.6-25.6h-217.6c-14.14 0-25.6 11.46-25.6 25.6v217.6h-96c-14.14 0-25.6 11.46-25.6 25.6v217.6c0 14.14 11.46 25.6 25.6 25.6h460.8c14.14 0 25.6-11.46 25.6-25.6v-217.6c0-14.14-11.46-25.6-25.6-25.6zm-243.2 243.2h-217.6v-217.6h121.6 96zm-96-243.2v-217.6h217.6v217.6h-96-25.6zm339.2 243.2h-217.6v-217.6h96 121.6z"/></svg>